<mxfile host="app.diagrams.net" modified="2024-07-25T04:30:14.523Z" agent="Mozilla/5.0 (Windows NT 10.0; Win64; x64) AppleWebKit/537.36 (KHTML, like Gecko) Chrome/126.0.0.0 Safari/537.36" etag="6CfwW9dwp0OpYVhcBa_d" version="24.7.3" type="device">
  <diagram name="Page-1" id="P2BTRaMq40Mr4xR4LgYy">
    <mxGraphModel dx="880" dy="468" grid="1" gridSize="10" guides="1" tooltips="1" connect="1" arrows="1" fold="1" page="1" pageScale="1" pageWidth="827" pageHeight="1169" math="0" shadow="0">
      <root>
        <mxCell id="0" />
        <mxCell id="1" parent="0" />
        <mxCell id="Hoi81f2CTlBK86K2Ne24-1" value="Customer" style="shape=umlActor;verticalLabelPosition=bottom;verticalAlign=top;html=1;outlineConnect=0;" parent="1" vertex="1">
          <mxGeometry x="100" y="200" width="30" height="60" as="geometry" />
        </mxCell>
        <mxCell id="Hoi81f2CTlBK86K2Ne24-5" value="Restrauant" style="shape=umlActor;verticalLabelPosition=bottom;verticalAlign=top;html=1;outlineConnect=0;" parent="1" vertex="1">
          <mxGeometry x="110" y="540" width="30" height="60" as="geometry" />
        </mxCell>
        <mxCell id="Hoi81f2CTlBK86K2Ne24-6" value="System" style="shape=umlActor;verticalLabelPosition=bottom;verticalAlign=top;html=1;outlineConnect=0;" parent="1" vertex="1">
          <mxGeometry x="90" y="890" width="30" height="60" as="geometry" />
        </mxCell>
        <mxCell id="Hoi81f2CTlBK86K2Ne24-16" value="Notify Customer" style="strokeWidth=2;html=1;shape=mxgraph.flowchart.start_1;whiteSpace=wrap;" parent="1" vertex="1">
          <mxGeometry x="360" y="590" width="180" height="60" as="geometry" />
        </mxCell>
        <mxCell id="Hoi81f2CTlBK86K2Ne24-17" value="Prepare Order" style="strokeWidth=2;html=1;shape=mxgraph.flowchart.start_1;whiteSpace=wrap;" parent="1" vertex="1">
          <mxGeometry x="360" y="510" width="180" height="60" as="geometry" />
        </mxCell>
        <mxCell id="Hoi81f2CTlBK86K2Ne24-18" value="Receive Order" style="strokeWidth=2;html=1;shape=mxgraph.flowchart.start_1;whiteSpace=wrap;" parent="1" vertex="1">
          <mxGeometry x="360" y="430" width="180" height="60" as="geometry" />
        </mxCell>
        <mxCell id="Hoi81f2CTlBK86K2Ne24-20" value="Manage Payments" style="strokeWidth=2;html=1;shape=mxgraph.flowchart.start_1;whiteSpace=wrap;" parent="1" vertex="1">
          <mxGeometry x="345" y="1000" width="210" height="60" as="geometry" />
        </mxCell>
        <mxCell id="Hoi81f2CTlBK86K2Ne24-21" value="Manage Inventory" style="strokeWidth=2;html=1;shape=mxgraph.flowchart.start_1;whiteSpace=wrap;" parent="1" vertex="1">
          <mxGeometry x="350" y="900" width="200" height="60" as="geometry" />
        </mxCell>
        <mxCell id="Hoi81f2CTlBK86K2Ne24-22" value="Process Order" style="strokeWidth=2;html=1;shape=mxgraph.flowchart.start_1;whiteSpace=wrap;" parent="1" vertex="1">
          <mxGeometry x="350" y="810" width="190" height="60" as="geometry" />
        </mxCell>
        <mxCell id="Hoi81f2CTlBK86K2Ne24-25" value="" style="endArrow=none;html=1;rounded=0;entryX=1;entryY=0.3333333333333333;entryDx=0;entryDy=0;entryPerimeter=0;exitX=0;exitY=0.5;exitDx=0;exitDy=0;exitPerimeter=0;" parent="1" source="Hoi81f2CTlBK86K2Ne24-9" target="Hoi81f2CTlBK86K2Ne24-1" edge="1">
          <mxGeometry width="50" height="50" relative="1" as="geometry">
            <mxPoint x="570" y="230" as="sourcePoint" />
            <mxPoint x="600" y="200" as="targetPoint" />
          </mxGeometry>
        </mxCell>
        <mxCell id="Hoi81f2CTlBK86K2Ne24-26" value="" style="endArrow=none;html=1;rounded=0;entryX=0;entryY=0.5;entryDx=0;entryDy=0;entryPerimeter=0;" parent="1" target="Hoi81f2CTlBK86K2Ne24-18" edge="1">
          <mxGeometry width="50" height="50" relative="1" as="geometry">
            <mxPoint x="130" y="580" as="sourcePoint" />
            <mxPoint x="180" y="530" as="targetPoint" />
          </mxGeometry>
        </mxCell>
        <mxCell id="Hoi81f2CTlBK86K2Ne24-28" value="" style="endArrow=none;html=1;rounded=0;entryX=0;entryY=0.5;entryDx=0;entryDy=0;entryPerimeter=0;exitX=1;exitY=0.3333333333333333;exitDx=0;exitDy=0;exitPerimeter=0;" parent="1" source="Hoi81f2CTlBK86K2Ne24-1" target="Hoi81f2CTlBK86K2Ne24-11" edge="1">
          <mxGeometry width="50" height="50" relative="1" as="geometry">
            <mxPoint x="140" y="170" as="sourcePoint" />
            <mxPoint x="620" y="180" as="targetPoint" />
          </mxGeometry>
        </mxCell>
        <mxCell id="Hoi81f2CTlBK86K2Ne24-29" value="" style="endArrow=none;html=1;rounded=0;exitX=1;exitY=0.3333333333333333;exitDx=0;exitDy=0;exitPerimeter=0;entryX=0;entryY=0.5;entryDx=0;entryDy=0;entryPerimeter=0;" parent="1" source="Hoi81f2CTlBK86K2Ne24-1" target="Hoi81f2CTlBK86K2Ne24-12" edge="1">
          <mxGeometry width="50" height="50" relative="1" as="geometry">
            <mxPoint x="570" y="230" as="sourcePoint" />
            <mxPoint x="620" y="180" as="targetPoint" />
          </mxGeometry>
        </mxCell>
        <mxCell id="Hoi81f2CTlBK86K2Ne24-30" value="" style="endArrow=none;html=1;rounded=0;exitX=1;exitY=0.3333333333333333;exitDx=0;exitDy=0;exitPerimeter=0;entryX=0;entryY=0.5;entryDx=0;entryDy=0;entryPerimeter=0;" parent="1" source="Hoi81f2CTlBK86K2Ne24-6" target="Hoi81f2CTlBK86K2Ne24-22" edge="1">
          <mxGeometry width="50" height="50" relative="1" as="geometry">
            <mxPoint x="505" y="730" as="sourcePoint" />
            <mxPoint x="555" y="680" as="targetPoint" />
          </mxGeometry>
        </mxCell>
        <mxCell id="Hoi81f2CTlBK86K2Ne24-31" value="" style="endArrow=none;html=1;rounded=0;exitX=0;exitY=0.5;exitDx=0;exitDy=0;exitPerimeter=0;" parent="1" source="Hoi81f2CTlBK86K2Ne24-16" target="Hoi81f2CTlBK86K2Ne24-17" edge="1">
          <mxGeometry width="50" height="50" relative="1" as="geometry">
            <mxPoint x="570" y="720" as="sourcePoint" />
            <mxPoint x="620" y="670" as="targetPoint" />
            <Array as="points">
              <mxPoint x="120" y="580" />
            </Array>
          </mxGeometry>
        </mxCell>
        <mxCell id="Hoi81f2CTlBK86K2Ne24-32" value="" style="endArrow=none;html=1;rounded=0;entryX=0;entryY=0.5;entryDx=0;entryDy=0;entryPerimeter=0;" parent="1" target="Hoi81f2CTlBK86K2Ne24-20" edge="1">
          <mxGeometry width="50" height="50" relative="1" as="geometry">
            <mxPoint x="120" y="910" as="sourcePoint" />
            <mxPoint x="620" y="960" as="targetPoint" />
          </mxGeometry>
        </mxCell>
        <mxCell id="Hoi81f2CTlBK86K2Ne24-33" value="" style="endArrow=none;html=1;rounded=0;entryX=0.042;entryY=0.769;entryDx=0;entryDy=0;entryPerimeter=0;" parent="1" target="Hoi81f2CTlBK86K2Ne24-21" edge="1">
          <mxGeometry width="50" height="50" relative="1" as="geometry">
            <mxPoint x="130" y="910" as="sourcePoint" />
            <mxPoint x="620" y="960" as="targetPoint" />
          </mxGeometry>
        </mxCell>
        <mxCell id="Hoi81f2CTlBK86K2Ne24-37" value="" style="swimlane;startSize=0;" parent="1" vertex="1">
          <mxGeometry x="250" y="10" width="390" height="1130" as="geometry" />
        </mxCell>
        <mxCell id="Hoi81f2CTlBK86K2Ne24-10" value="Make Payment" style="strokeWidth=2;html=1;shape=mxgraph.flowchart.start_1;whiteSpace=wrap;" parent="Hoi81f2CTlBK86K2Ne24-37" vertex="1">
          <mxGeometry x="105" y="270" width="185" height="60" as="geometry" />
        </mxCell>
        <mxCell id="Hoi81f2CTlBK86K2Ne24-11" value="Place Order" style="strokeWidth=2;html=1;shape=mxgraph.flowchart.start_1;whiteSpace=wrap;" parent="Hoi81f2CTlBK86K2Ne24-37" vertex="1">
          <mxGeometry x="107.5" y="200" width="180" height="60" as="geometry" />
        </mxCell>
        <mxCell id="Hoi81f2CTlBK86K2Ne24-12" value="View Menu" style="strokeWidth=2;html=1;shape=mxgraph.flowchart.start_1;whiteSpace=wrap;" parent="Hoi81f2CTlBK86K2Ne24-37" vertex="1">
          <mxGeometry x="117.5" y="130" width="170" height="60" as="geometry" />
        </mxCell>
        <mxCell id="Hoi81f2CTlBK86K2Ne24-9" value="Search&amp;nbsp;&lt;div&gt;Restrauant&lt;/div&gt;" style="strokeWidth=2;html=1;shape=mxgraph.flowchart.start_1;whiteSpace=wrap;" parent="Hoi81f2CTlBK86K2Ne24-37" vertex="1">
          <mxGeometry x="120" y="50" width="170" height="60" as="geometry" />
        </mxCell>
        <mxCell id="VWEM4JooDP7FtXnjzlyj-6" value="Food Ordering Management" style="text;html=1;align=center;verticalAlign=middle;resizable=0;points=[];autosize=1;strokeColor=none;fillColor=none;" vertex="1" parent="Hoi81f2CTlBK86K2Ne24-37">
          <mxGeometry x="120" y="10" width="170" height="30" as="geometry" />
        </mxCell>
        <mxCell id="VWEM4JooDP7FtXnjzlyj-2" value="" style="endArrow=none;html=1;rounded=0;entryX=0.097;entryY=0.217;entryDx=0;entryDy=0;entryPerimeter=0;" edge="1" parent="1" target="Hoi81f2CTlBK86K2Ne24-10">
          <mxGeometry width="50" height="50" relative="1" as="geometry">
            <mxPoint x="140" y="220" as="sourcePoint" />
            <mxPoint x="440" y="230" as="targetPoint" />
          </mxGeometry>
        </mxCell>
      </root>
    </mxGraphModel>
  </diagram>
</mxfile>
